<svg width="11" height="12" viewBox="0 0 11 12" fill="none" xmlns="http://www.w3.org/2000/svg">
			<path class="base" d="M10.537 6.00295C10.4142 6.00295 10.2964 6.05173 10.2096 6.13856C10.1228 6.22539 10.074 6.34316 10.074 6.46595V9.70295C10.074 9.82575 10.0252 9.94352 9.9384 10.0303C9.85157 10.1172 9.7338 10.166 9.61101 10.166H2.19701C2.07421 10.166 1.95645 10.1172 1.86962 10.0303C1.78279 9.94352 1.73401 9.82575 1.73401 9.70295V2.29295C1.73401 2.17016 1.78279 2.05239 1.86962 1.96556C1.95645 1.87873 2.07421 1.82995 2.19701 1.82995H5.44001C5.56293 1.82995 5.68083 1.78112 5.76775 1.6942C5.85467 1.60728 5.90351 1.48938 5.90351 1.36645C5.90351 1.24353 5.85467 1.12563 5.76775 1.03871C5.68083 0.951787 5.56293 0.902954 5.44001 0.902954H2.19701C1.82836 0.902954 1.4748 1.0494 1.21413 1.31008C0.953453 1.57075 0.807007 1.9243 0.807007 2.29295V9.70295C0.807007 10.0716 0.953453 10.4252 1.21413 10.6858C1.4748 10.9465 1.82836 11.093 2.19701 11.093H9.60701C9.97566 11.093 10.3292 10.9465 10.5899 10.6858C10.8506 10.4252 10.997 10.0716 10.997 9.70295V6.46295C10.9962 6.3412 10.9475 6.22465 10.8614 6.13855C10.7753 6.05246 10.6588 6.00374 10.537 6.00295Z" fill="#0080d0"/>
			<path class="arrow" d="M11 1.36095C10.9996 1.33207 10.9966 1.30328 10.991 1.27495C10.991 1.26195 10.983 1.24995 10.98 1.23695C10.9759 1.22034 10.9709 1.20398 10.965 1.18795C10.9587 1.17426 10.9517 1.16091 10.944 1.14795C10.937 1.13495 10.931 1.12095 10.922 1.10795C10.9078 1.08741 10.8921 1.06801 10.875 1.04995L10.865 1.03695L10.853 1.02795C10.8346 1.01036 10.8149 0.99431 10.794 0.979955C10.781 0.971955 10.768 0.965955 10.755 0.958955C10.742 0.951955 10.729 0.943954 10.714 0.937954C10.6979 0.931996 10.6816 0.926987 10.665 0.922955C10.653 0.922955 10.641 0.914954 10.628 0.911954C10.598 0.905926 10.5675 0.902911 10.537 0.902955H7.75695C7.63403 0.902955 7.51613 0.951787 7.42921 1.03871C7.34229 1.12563 7.29345 1.24353 7.29345 1.36645C7.29345 1.48938 7.34229 1.60728 7.42921 1.6942C7.51613 1.78112 7.63403 1.82995 7.75695 1.82995H9.41795L5.61795 5.62995C5.5311 5.71681 5.4823 5.83462 5.4823 5.95745C5.4823 6.08029 5.5311 6.1981 5.61795 6.28495C5.70481 6.37181 5.82262 6.42061 5.94545 6.42061C6.06829 6.42061 6.18609 6.37181 6.27295 6.28495L10.073 2.48495V4.14595C10.073 4.26888 10.1218 4.38678 10.2087 4.4737C10.2956 4.56062 10.4135 4.60945 10.5365 4.60945C10.6594 4.60945 10.7773 4.56062 10.8642 4.4737C10.9511 4.38678 11 4.26888 11 4.14595V1.36595C11 1.36595 11 1.36295 11 1.36095Z" fill="#0080d0"/>
		</svg>